:SAMPLES-PER-SECOND 30
:FULLY-SPECIFIED
:DEGREES
541
root  -3.87315 40.8456 0.546104 -163.54 -89.4988 158.736
RightUpLeg  11.0772 -3.02759 -2.75493
RightLeg  -1.96975 -16.8057 0.521776
RightFoot  -2.40747 -0.360095 4.41254
RightToes  -3.11842e-008 1.75238e-005 3.56266e-009
Spine  -16.8041 -0.342304 -2.50973
Spine1  14.567 -0.413354 1.35242
HEad  -7.88353 -3.6807 5.6306
LeftShoulder1  3.83991 -8.37292 -26.2182
LeftArm  -30.8579 -28.5633 -40.3994
LeftForeArm  -29.9576 -43.5802 -12.3278
LeftHand  0.0353588 1.36305 -1.24855
RightShoulder  3.79164 8.50364 25.5049
RightArm  -29.7765 24.9159 38.3208
RightForeArm  -35.4715 50.0794 15.5831
RightHand  -0.320925 1.93111 -5.26363
LeftUpLeg  9.60817 2.43432 2.2806
LeftLeg  -1.19635 13.3908 -0.825053
LeftFoot  -2.44096 0.243697 -2.93767
LeftToes  4.7713e-008 1.46693e-008 1.32589e-009
542
root  -3.87536 40.8464 0.536622 -153.873 -89.5736 149.038
RightUpLeg  11.1125 -3.04623 -2.76808
RightLeg  -1.94079 -16.8913 0.497294
RightFoot  -2.42933 -0.352031 4.30264
RightToes  -3.11842e-008 1.75238e-005 3.56266e-009
Spine  -16.7167 -0.262256 -2.48735
Spine1  14.58 -0.312502 1.3081
HEad  -7.81595 -4.00654 5.61901
LeftShoulder1  3.82585 -8.34414 -26.1758
LeftArm  -30.4961 -27.6055 -40.2996
LeftForeArm  -26.1616 -45.5676 -12.9832
LeftHand  0.0369073 1.4183 -1.31973
RightShoulder  3.87985 8.68465 25.7718
RightArm  -29.2176 24.3143 37.9
RightForeArm  -34.7119 51.3125 16.2326
RightHand  -0.364669 2.29136 -5.70611
LeftUpLeg  9.70184 2.38677 2.2276
LeftLeg  -1.33435 13.3863 -0.818952
LeftFoot  -2.36686 0.236929 -2.82484
LeftToes  4.7713e-008 1.46693e-008 1.32589e-009
543
root  -3.877 40.8473 0.52581 -138.863 -89.6321 134.034
RightUpLeg  11.1156 -3.0669 -2.79756
RightLeg  -1.9217 -16.9541 0.493676
RightFoot  -2.44998 -0.355186 4.36555
RightToes  -3.11842e-008 1.75238e-005 3.56266e-009
Spine  -16.6156 -0.224326 -2.38871
Spine1  14.6025 -0.225342 1.09814
HEad  -7.6857 -4.45157 5.42215
LeftShoulder1  3.71019 -8.09674 -25.8546
LeftArm  -29.7317 -26.1747 -40.5534
LeftForeArm  -18.1555 -48.6442 -13.9607
LeftHand  -0.00286142 1.46222 -0.159647
RightShoulder  3.83794 8.53992 25.8089
RightArm  -28.331 23.5491 38.1906
RightForeArm  -33.2225 53.2245 17.3068
RightHand  -0.374228 2.57599 -5.65738
LeftUpLeg  9.72349 2.37394 2.20501
LeftLeg  -1.42028 13.3083 -0.855267
LeftFoot  -2.30965 0.241738 -2.89007
LeftToes  4.7713e-008 1.46693e-008 1.32589e-009
544
root  -3.86533 40.8479 0.518286 -116.033 -89.6821 111.238
RightUpLeg  11.0683 -3.10349 -2.83121
RightLeg  -1.89427 -17.0662 0.518498
RightFoot  -2.4806 -0.353276 4.347
RightToes  -3.11842e-008 1.75238e-005 3.56266e-009
Spine  -16.7199 -0.249555 -2.38017
Spine1  15.1923 -0.22248 0.995415
HEad  -8.03745 -4.53692 5.42896
LeftShoulder1  3.58512 -7.77168 -25.6606
LeftArm  -29.2031 -24.6192 -41.0984
LeftForeArm  -6.12102 -52.5077 -15.2078
LeftHand  -0.0120988 0.764241 0.206225
RightShoulder  3.85052 8.50108 26.0255
RightArm  -27.6161 22.9044 38.3149
RightForeArm  -31.2493 55.6409 18.8362
RightHand  -0.326211 2.36566 -5.08275
LeftUpLeg  9.67063 2.34649 2.18866
LeftLeg  -1.47362 13.1629 -0.873141
LeftFoot  -2.29434 0.250832 -3.02099
LeftToes  4.7713e-008 1.46693e-008 1.32589e-009
545
root  -3.83329 40.848 0.510953 -85.6879 -89.6893 80.9038
RightUpLeg  10.9957 -3.11323 -2.8222
RightLeg  -1.83094 -17.2204 0.514441
RightFoot  -2.47422 -0.35106 4.31935
RightToes  -3.11842e-008 1.75238e-005 3.56266e-009
Spine  -16.5638 -0.0953596 -2.36353
Spine1  15.4361 -0.0556395 0.973754
HEad  -8.27124 -4.93368 5.43816
LeftShoulder1  3.58495 -7.74984 -25.7231
LeftArm  -27.4918 -23.5211 -41.359
LeftForeArm  0.748514 -56.4683 -17.1491
LeftHand  -0.0222578 0.42328 0.465936
RightShoulder  3.93972 8.70933 26.2153
RightArm  -27.2891 21.7014 38.1914
RightForeArm  -29.1155 58.4496 20.9163
RightHand  -0.337847 2.39262 -5.23591
LeftUpLeg  9.55577 2.31495 2.17217
LeftLeg  -1.40816 13.0479 -0.832202
LeftFoot  -2.26939 0.248344 -2.95745
LeftToes  4.7713e-008 1.46693e-008 1.32589e-009
